<svg version="1.1" id="Layer_1" xmlns="http://www.w3.org/2000/svg" x="0" y="0" viewBox="0 372 1440 336" xml:space="preserve"><g id="Layer_1_1_"><path fill="#E30613" d="M0 372h1440v336H0z"/><path fill="#FFF" d="M1356.9 456.9h-40.5v9.7h30.9v28.5h-30.9v9.7h30.9v28.5h-30.9v9.7h30.9v28.5h-30.9v9.7h30.9v28.5h-30.9v9.7h40.5z"/><path fill="#1D1D1B" d="M1277.5 481.4v-24.5h-81.8v162.4h28.5v-68.9h41.8v-24.5h-41.8v-44.5zM232.9 610.2v9h-28.4v-9c0-15.6 2.7-35.1 8.1-58.7l21.4-94.1h32.5l21.4 94.1c5.4 23.6 8.1 43.1 8.1 58.7v9h-28.4v-9c0-8.3-.5-17.2-1.5-26.6h-31.6c-1.1 9.3-1.6 18.2-1.6 26.6zm17.3-119.9l-12.5 68.8h24.9l-12.4-68.8zM376.4 457.3v67.5l5.8-8.6c11.6-17.1 18.8-35.5 21.8-55.2l.6-3.7H433l-.8 5.4c-3.5 22.7-11.9 43.7-24.9 63.1 15 25.6 24.9 54.3 29.6 86.2l1 7.2h-28.4l-.8-5.6c-4.5-29.1-11.5-51.6-21.1-67.6l-11.2 16v57.2H348V457.3h28.4zM575.8 481.7h-30.1v137.5h-28.4V481.7h-30.1v-24.4h88.7v24.4zM708.9 567.2c0 20.4-3.8 34.5-11.5 42.3-7.7 7.8-17.7 11.7-30.1 11.7-12.4 0-22.4-3.9-30.1-11.7-7.7-7.8-11.5-21.9-11.5-42.3v-58.1c0-20.4 3.8-34.5 11.5-42.4 7.7-7.8 17.7-11.7 30.1-11.7 12.4 0 22.4 3.9 30.1 11.7 7.7 7.8 11.5 21.9 11.5 42.4v58.1zm-28.4 4.1v-66.2c0-9.2-.9-15.7-2.7-19.7-1.8-4-5.3-5.9-10.7-5.9-5.4 0-8.9 2-10.6 5.9-1.7 3.9-2.6 10.5-2.6 19.8v66.2c0 9.1.9 15.6 2.7 19.6 1.8 4 5.3 5.9 10.7 5.9 5.4 0 8.9-2 10.6-5.9 1.7-4 2.6-10.5 2.6-19.7zM852.2 567.2c0 20.4-3.8 34.5-11.5 42.3-7.7 7.8-17.6 11.7-29.8 11.7s-22.1-3.9-29.8-11.7c-7.7-7.8-11.5-21.9-11.5-42.3v-58.1c0-20.4 3.8-34.5 11.5-42.4 7.7-7.8 17.6-11.7 29.8-11.7 16.9 0 30 7.4 39.3 22.1l-21.4 13.7c-4.3-7.6-10-11.5-17.1-11.5-4.5 0-8 2-10.3 5.9-2.3 4-3.5 10.7-3.5 20.3v65.7c0 9.1.9 15.6 2.7 19.5 1.8 4 5.3 5.9 10.4 5.9 5.2 0 8.6-2 10.3-5.9s2.5-10.5 2.5-19.6v-19.5h-9.7v-24.4h38.1v40zM999.5 619.2h-28.4l-.4-5.8c-1.9-30.1-7.5-51.5-16.7-64.2h-11.3v70.1h-28.4v-162h41.4c12.9 0 22.9 3.7 29.9 11.2 7 7.5 10.5 19.2 10.5 35.2 0 19.9-6 33.2-18.1 40.1 12.3 16.7 19.3 39.4 21.1 68.1l.4 7.3zm-31.9-115.5c0-7.6-1-13.2-3.1-16.7s-6.1-5.3-12.1-5.3h-9.7v43h9.7c5.9 0 10-1.8 12.1-5.3 2.1-3.5 3.1-8.8 3.1-15.7zM1074.8 610.2v9h-28.4v-9c0-15.6 2.7-35.1 8.1-58.7l21.4-94.1h32.5l21.4 94.1c5.4 23.6 8.1 43.1 8.1 58.7v9h-28.4v-9c0-8.3-.5-17.2-1.5-26.6h-31.6c-1.1 9.3-1.6 18.2-1.6 26.6zm17.3-119.9l-12.5 68.8h24.9l-12.4-68.8zM164.9 481.4v-24.5H83.1v162.4h28.5v-68.9h41.8v-24.5h-41.8v-44.5z"/></g></svg>